<svg id="visual" viewBox="0 0 1900 1080" width="1900" height="1080" xmlns="http://www.w3.org/2000/svg" xmlns:xlink="http://www.w3.org/1999/xlink" version="1.1"><rect width="1900" height="1080" fill="#001122"></rect><g><g transform="translate(908 79)"><path d="M0 -246.8L192.9 -153.9L240.6 54.9L107.1 222.3L-107.1 222.3L-240.6 54.9L-192.9 -153.9Z" fill="none" stroke="#FB2576" stroke-width="2"></path></g><g transform="translate(216 544)"><path d="M0 -234L182.9 -145.9L228.1 52.1L101.5 210.8L-101.5 210.8L-228.1 52.1L-182.9 -145.9Z" fill="none" stroke="#FB2576" stroke-width="2"></path></g><g transform="translate(1143 917)"><path d="M0 -32L25 -20L31.2 7.1L13.9 28.8L-13.9 28.8L-31.2 7.1L-25 -20Z" fill="none" stroke="#FB2576" stroke-width="2"></path></g><g transform="translate(1430 47)"><path d="M0 -95L74.3 -59.2L92.6 21.1L41.2 85.6L-41.2 85.6L-92.6 21.1L-74.3 -59.2Z" stroke="#FB2576" fill="none" stroke-width="2"></path></g><g transform="translate(1675 812)"><path d="M0 -81L63.3 -50.5L79 18L35.1 73L-35.1 73L-79 18L-63.3 -50.5Z" stroke="#FB2576" fill="none" stroke-width="2"></path></g><g transform="translate(470 1042)"><path d="M0 -130L101.6 -81.1L126.7 28.9L56.4 117.1L-56.4 117.1L-126.7 28.9L-101.6 -81.1Z" stroke="#FB2576" fill="none" stroke-width="2"></path></g><g transform="translate(387 8)"><path d="M0 -93L72.7 -58L90.7 20.7L40.4 83.8L-40.4 83.8L-90.7 20.7L-72.7 -58Z" stroke="#FB2576" fill="none" stroke-width="2"></path></g><g transform="translate(711 578)"><path d="M0 -123L96.2 -76.7L119.9 27.4L53.4 110.8L-53.4 110.8L-119.9 27.4L-96.2 -76.7Z" stroke="#FB2576" fill="none" stroke-width="2"></path></g><g transform="translate(1838 337)"><path d="M0 -77L60.2 -48L75.1 17.1L33.4 69.4L-33.4 69.4L-75.1 17.1L-60.2 -48Z" stroke="#FB2576" fill="none" stroke-width="2"></path></g></g></svg>